<?xml version="1.0" encoding="UTF-8" standalone="no"?>
<!-- Created with Inkscape (http://www.inkscape.org/) -->

<svg
   xmlns:dc="http://purl.org/dc/elements/1.1/"
   xmlns:cc="http://creativecommons.org/ns#"
   xmlns:rdf="http://www.w3.org/1999/02/22-rdf-syntax-ns#"
   xmlns:svg="http://www.w3.org/2000/svg"
   xmlns="http://www.w3.org/2000/svg"
   xmlns:sodipodi="http://sodipodi.sourceforge.net/DTD/sodipodi-0.dtd"
   xmlns:inkscape="http://www.inkscape.org/namespaces/inkscape"
   width="75"
   height="35"
   viewBox="0 0 19.843768 9.2604225"
   version="1.1"
   id="svg8"
   inkscape:version="0.92.1 r15371"
   sodipodi:docname="logo.svg">
  <defs
     id="defs2">
    <inkscape:path-effect
       effect="spiro"
       id="path-effect4647"
       is_visible="true" />
    <inkscape:path-effect
       effect="spiro"
       id="path-effect4643"
       is_visible="true" />
    <inkscape:path-effect
       effect="spiro"
       id="path-effect4639"
       is_visible="true" />
    <inkscape:path-effect
       effect="spiro"
       id="path-effect4635"
       is_visible="true" />
    <inkscape:path-effect
       effect="spiro"
       id="path-effect4631"
       is_visible="true" />
    <inkscape:path-effect
       effect="spiro"
       id="path-effect4627"
       is_visible="true" />
    <inkscape:path-effect
       effect="spiro"
       id="path-effect4623"
       is_visible="true" />
    <inkscape:path-effect
       effect="spiro"
       id="path-effect4619"
       is_visible="true" />
    <inkscape:path-effect
       effect="spiro"
       id="path-effect4615"
       is_visible="true" />
    <inkscape:path-effect
       effect="spiro"
       id="path-effect4611"
       is_visible="true" />
    <inkscape:path-effect
       effect="spiro"
       id="path-effect4607"
       is_visible="true" />
    <inkscape:path-effect
       effect="spiro"
       id="path-effect4575"
       is_visible="true" />
    <inkscape:path-effect
       effect="spiro"
       id="path-effect4541"
       is_visible="true" />
    <marker
       inkscape:stockid="Arrow2Mend"
       orient="auto"
       refY="0"
       refX="0"
       id="Arrow2Mend"
       style="overflow:visible"
       inkscape:isstock="true">
      <path
         id="path4739"
         style="fill:#000000;fill-opacity:1;fill-rule:evenodd;stroke:#000000;stroke-width:0.625;stroke-linejoin:round;stroke-opacity:1"
         d="M 8.7185878,4.0337352 -2.2072895,0.01601326 8.7185884,-4.0017078 c -1.7454984,2.3720609 -1.7354408,5.6174519 -6e-7,8.035443 z"
         transform="scale(-0.6)"
         inkscape:connector-curvature="0" />
    </marker>
    <marker
       inkscape:stockid="Arrow1Lstart"
       orient="auto"
       refY="0"
       refX="0"
       id="marker5066"
       style="overflow:visible"
       inkscape:isstock="true">
      <path
         id="path5064"
         d="M 0,0 5,-5 -12.5,0 5,5 Z"
         style="fill:#000000;fill-opacity:1;fill-rule:evenodd;stroke:#000000;stroke-width:1.00000003pt;stroke-opacity:1"
         transform="matrix(0.8,0,0,0.8,10,0)"
         inkscape:connector-curvature="0" />
    </marker>
    <marker
       inkscape:stockid="Scissors"
       orient="auto"
       refY="0"
       refX="0"
       id="Scissors"
       style="overflow:visible"
       inkscape:isstock="true">
      <path
         id="schere"
         d="M 9.0898857,-3.6061018 C 8.1198849,-4.7769976 6.3697607,-4.7358294 5.0623558,-4.2327734 l -8.2124046,3.0779029 c -2.3882933,-1.3067135 -4.7482873,-0.9325372 -4.7482873,-1.5687873 0,-0.4973164 0.4566662,-0.3883222 0.3883068,-1.6831941 -0.065635,-1.2432767 -1.3635771,-2.1630796 -2.5903987,-2.0816435 -1.227271,-0.00735 -2.499439,0.9331613 -2.510341,2.2300611 -0.09143,1.3063864 1.007209,2.5196896 2.306764,2.6052316 1.5223406,0.2266616 4.218258,-0.6955566 5.482945,1.57086006 -0.9422847,1.73825774 -2.6140244,1.74307674 -4.1255107,1.65607034 -1.2548743,-0.072235 -2.7620933,0.2873979 -3.3606483,1.5208605 -0.578367,1.1820862 -0.0112,2.8646022 1.316749,3.226412 1.3401912,0.4918277 3.1806689,-0.129711 3.4993722,-1.6707242 0.2456585,-1.187823 -0.5953659,-1.7459574 -0.2725074,-2.1771537 0.2436135,-0.32536 1.7907806,-0.1368452 4.5471053,-1.3748244 L 5.6763468,4.2330688 C 6.8000164,4.5467672 8.1730685,4.5362646 9.1684433,3.4313614 l -9.22008423,-3.48508362 z m -18.3078016,-1.900504 c 1.294559,0.7227998 1.1888392,2.6835702 -0.1564272,3.0632889 -1.2165179,0.423661 -2.7710269,-0.7589694 -2.3831779,-2.0774648 0.227148,-1.0818519 1.653387,-1.480632 2.5396051,-0.9858241 z m 0.056264,8.0173649 c 1.3508301,0.4988648 1.1214429,2.7844356 -0.2522207,3.091609 -0.9110594,0.3163391 -2.2135494,-0.1387976 -2.3056964,-1.2121394 -0.177609,-1.305055 1.356085,-2.4841482 2.5579171,-1.8794696 z"
         style="fill:#000000;fill-opacity:1;stroke:#000000;stroke-opacity:1"
         inkscape:connector-curvature="0" />
    </marker>
    <marker
       inkscape:stockid="Arrow1Lstart"
       orient="auto"
       refY="0"
       refX="0"
       id="Arrow1Lstart"
       style="overflow:visible"
       inkscape:isstock="true">
      <path
         id="path4712"
         d="M 0,0 5,-5 -12.5,0 5,5 Z"
         style="fill:#000000;fill-opacity:1;fill-rule:evenodd;stroke:#000000;stroke-width:1.00000003pt;stroke-opacity:1"
         transform="matrix(0.8,0,0,0.8,10,0)"
         inkscape:connector-curvature="0" />
    </marker>
    <marker
       inkscape:stockid="Arrow1Lend"
       orient="auto"
       refY="0"
       refX="0"
       id="Arrow1Lend"
       style="overflow:visible"
       inkscape:isstock="true">
      <path
         id="path4715"
         d="M 0,0 5,-5 -12.5,0 5,5 Z"
         style="fill:#000000;fill-opacity:1;fill-rule:evenodd;stroke:#000000;stroke-width:1.00000003pt;stroke-opacity:1"
         transform="matrix(-0.8,0,0,-0.8,-10,0)"
         inkscape:connector-curvature="0" />
    </marker>
    <inkscape:path-effect
       effect="spiro"
       id="path-effect4541-7"
       is_visible="true" />
    <inkscape:path-effect
       effect="spiro"
       id="path-effect4541-7-7"
       is_visible="true" />
    <inkscape:path-effect
       effect="spiro"
       id="path-effect4643-6"
       is_visible="true" />
    <inkscape:path-effect
       effect="spiro"
       id="path-effect4639-8"
       is_visible="true" />
    <inkscape:path-effect
       effect="spiro"
       id="path-effect4635-9"
       is_visible="true" />
    <inkscape:path-effect
       effect="spiro"
       id="path-effect4631-5"
       is_visible="true" />
    <inkscape:path-effect
       effect="spiro"
       id="path-effect4627-4"
       is_visible="true" />
    <inkscape:path-effect
       effect="spiro"
       id="path-effect4623-6"
       is_visible="true" />
    <inkscape:path-effect
       effect="spiro"
       id="path-effect4619-5"
       is_visible="true" />
    <inkscape:path-effect
       effect="spiro"
       id="path-effect4615-7"
       is_visible="true" />
    <inkscape:path-effect
       effect="spiro"
       id="path-effect4611-2"
       is_visible="true" />
    <inkscape:path-effect
       effect="spiro"
       id="path-effect4607-2"
       is_visible="true" />
    <inkscape:path-effect
       effect="spiro"
       id="path-effect4575-3"
       is_visible="true" />
    <inkscape:path-effect
       effect="spiro"
       id="path-effect4541-8"
       is_visible="true" />
  </defs>
  <sodipodi:namedview
     id="base"
     pagecolor="#ffffff"
     bordercolor="#666666"
     borderopacity="1.0"
     inkscape:pageopacity="0.0"
     inkscape:pageshadow="2"
     inkscape:zoom="8"
     inkscape:cx="54.990266"
     inkscape:cy="22.214493"
     inkscape:document-units="mm"
     inkscape:current-layer="layer1"
     showgrid="true"
     inkscape:snap-bbox="true"
     inkscape:bbox-paths="true"
     inkscape:bbox-nodes="false"
     inkscape:snap-bbox-edge-midpoints="true"
     inkscape:snap-bbox-midpoints="true"
     showguides="false"
     inkscape:snap-global="true"
     inkscape:measure-start="0,0"
     inkscape:measure-end="0,0"
     inkscape:window-width="1920"
     inkscape:window-height="1017"
     inkscape:window-x="-8"
     inkscape:window-y="-8"
     inkscape:window-maximized="1"
     units="px">
    <inkscape:grid
       type="xygrid"
       id="grid3699" />
  </sodipodi:namedview>
  <metadata
     id="metadata5">
    <rdf:RDF>
      <cc:Work
         rdf:about="">
        <dc:format>image/svg+xml</dc:format>
        <dc:type
           rdf:resource="http://purl.org/dc/dcmitype/StillImage" />
        <dc:title />
      </cc:Work>
    </rdf:RDF>
  </metadata>
  <g
     inkscape:label="Calque 1"
     inkscape:groupmode="layer"
     id="layer1"
     transform="translate(0,-287.7392)">
    <path
       style="opacity:1;fill:#000000;fill-opacity:1;stroke:none;stroke-width:0.26499999;stroke-linecap:round;stroke-linejoin:round;stroke-miterlimit:4;stroke-dasharray:none;stroke-opacity:0.99761909"
       d="m 7.9101113,288.70814 a 2.6458332,2.6458332 0 0 0 -1.9094439,0.77463 2.6458332,2.6458332 0 0 0 -0.4206462,3.1936 2.6458332,2.6458332 0 0 0 2.9760457,1.233 2.6458332,2.6458332 0 0 0 1.1978595,-0.70073 2.7946538,2.7946538 0 0 1 -0.6133991,-1.13171 2.7946538,2.7946538 0 0 1 -0.045992,-0.22066 1.3229167,1.3229167 0 0 1 -1.2231812,0.8201 1.3229167,1.3229167 0 0 1 -1.3229167,-1.32291 1.3229167,1.3229167 0 0 1 1.3229167,-1.32292 1.3229167,1.3229167 0 0 1 0.6609416,0.17828 l 0.661975,-1.1467 a 2.6458332,2.6458332 0 0 0 -1.2841594,-0.35398 z m 2.5326617,2.64532 a 1.3973271,1.3973271 0 0 0 0.04754,0.35811 2.6458332,2.6458332 0 0 0 0.02687,-0.35811 z"
       id="path4619"
       inkscape:connector-curvature="0" />
    <path
       style="opacity:1;fill:#0076ff;fill-opacity:1;stroke:none;stroke-width:0.26499999;stroke-linecap:round;stroke-linejoin:round;stroke-miterlimit:4;stroke-dasharray:none;stroke-opacity:0.99761909"
       d="m 11.840104,291.35346 h 1.5875 v 1.5875 z"
       id="rect4621"
       inkscape:connector-curvature="0"
       sodipodi:nodetypes="cccc" />
    <path
       style="opacity:1;fill:#000000;fill-opacity:1;stroke:none;stroke-width:0.26499999;stroke-linecap:round;stroke-linejoin:round;stroke-miterlimit:4;stroke-dasharray:none;stroke-opacity:0.99761909"
       d="m 11.859224,288.70762 a 2.6458332,2.6458332 0 0 0 -1.031461,0.20154 2.6458332,2.6458332 0 0 0 -1.5435752,3.12901 2.6458332,2.6458332 0 0 0 2.9011152,1.93838 2.6458332,2.6458332 0 0 0 2.300634,-2.62309 h -1.322916 a 1.3229167,1.3229167 0 0 1 -1.322917,1.32291 1.3229167,1.3229167 0 0 1 -1.322917,-1.32291 1.3229167,1.3229167 0 0 1 1.322917,-1.32292 1.3229167,1.3229167 0 0 1 1.144116,0.66249 l 1.147217,-0.66249 a 2.6458332,2.6458332 0 0 0 -2.272213,-1.32292 z"
       id="path4617"
       inkscape:connector-curvature="0" />
    <path
       style="color:#000000;font-style:normal;font-variant:normal;font-weight:normal;font-stretch:normal;font-size:medium;line-height:normal;font-family:sans-serif;font-variant-ligatures:normal;font-variant-position:normal;font-variant-caps:normal;font-variant-numeric:normal;font-variant-alternates:normal;font-feature-settings:normal;text-indent:0;text-align:start;text-decoration:none;text-decoration-line:none;text-decoration-style:solid;text-decoration-color:#000000;letter-spacing:normal;word-spacing:normal;text-transform:none;writing-mode:lr-tb;direction:ltr;text-orientation:mixed;dominant-baseline:auto;baseline-shift:baseline;text-anchor:start;white-space:normal;shape-padding:0;clip-rule:nonzero;display:inline;overflow:visible;visibility:visible;opacity:1;isolation:auto;mix-blend-mode:normal;color-interpolation:sRGB;color-interpolation-filters:linearRGB;solid-color:#000000;solid-opacity:1;vector-effect:none;fill:#140404;fill-opacity:0.99761909;fill-rule:nonzero;stroke:none;stroke-width:0.11848617;stroke-linecap:round;stroke-linejoin:round;stroke-miterlimit:4;stroke-dasharray:none;stroke-dashoffset:0;stroke-opacity:1;color-rendering:auto;image-rendering:auto;shape-rendering:auto;text-rendering:auto;enable-background:accumulate"
       d="m 11.173272,295.31603 a 0.05924901,0.05924901 0 0 0 -0.0573,0.0652 v 0.59196 c 0,0.16429 -0.05426,0.29547 -0.145796,0.38701 -0.09154,0.0915 -0.222501,0.14487 -0.386784,0.14487 -0.164285,0 -0.295473,-0.0534 -0.387016,-0.14487 -0.09154,-0.0915 -0.144872,-0.22272 -0.144872,-0.38701 v -0.59196 a 0.05924901,0.05924901 0 0 0 -0.06632,-0.0594 0.05924901,0.05924901 0 0 0 -0.05245,0.0594 v 0.59196 c 0,0.19062 0.06451,0.3554 0.179991,0.47089 0.115476,0.11552 0.280043,0.17976 0.470658,0.17976 0.190616,0 0.355176,-0.0643 0.470658,-0.17976 0.115477,-0.11552 0.179761,-0.28027 0.179761,-0.47089 v -0.59196 a 0.05924901,0.05924901 0 0 0 -0.06053,-0.0652 z m 0.8281,0.005 a 0.05915585,0.05915585 0 0 0 -0.0051,4.6e-4 0.05915585,0.05915585 0 0 0 -0.0058,9.2e-4 h -0.579254 a 0.05915585,0.05915585 0 0 0 -0.0053,0 0.05915585,0.05915585 0 0 0 0.0053,0.11782 h 0.53258 v 1.12385 a 0.05915585,0.05915585 0 1 0 0.117838,0 v -1.12385 h 0.532812 a 0.05915585,0.05915585 0 1 0 0,-0.11782 h -0.579485 a 0.05915585,0.05915585 0 0 0 -0.01364,-10e-4 z m 0.829023,0 a 0.05915585,0.05915585 0 0 0 -0.0063,4.6e-4 0.05915585,0.05915585 0 0 0 -0.05245,0.0594 v 1.18323 a 0.05938282,0.05938282 0 1 0 0.118765,0 v -0.53258 h 1.064698 v 0.53258 a 0.05915585,0.05915585 0 1 0 0.117837,0 v -0.56678 a 0.05915585,0.05915585 0 0 0 0,-0.0499 v -0.56654 a 0.05915585,0.05915585 0 0 0 -0.06562,-0.0594 0.05915585,0.05915585 0 0 0 -0.05222,0.0594 v 0.53258 h -1.064698 v -0.53258 a 0.05915585,0.05915585 0 0 0 -0.06008,-0.0599 z m 2.011098,0 a 0.05915585,0.05915585 0 0 0 -0.0063,4.6e-4 0.05915585,0.05915585 0 0 0 -0.0058,9.2e-4 h -0.578329 a 0.05915585,0.05915585 0 0 0 -0.0063,0 0.05915585,0.05915585 0 0 0 0.0063,0.11782 h 0.531656 v 1.06446 h -0.531656 a 0.05939,0.05939 0 1 0 0,0.11878 h 1.182305 a 0.05939,0.05939 0 1 0 0,-0.11878 h -0.531656 v -1.06446 h 0.531656 a 0.05915585,0.05915585 0 1 0 0,-0.11782 H 14.85504 a 0.05915585,0.05915585 0 0 0 -0.01364,-10e-4 z m -7.0970701,4.6e-4 c -0.358694,0 -0.650649,0.29265 -0.650649,0.65134 0,0.35869 0.291955,0.65065 0.650649,0.65065 0.358692,0 0.650419,-0.29196 0.650419,-0.65065 a 0.05924901,0.05924901 0 0 0 -0.05938,-0.0594 h -0.591039 a 0.05939,0.05939 0 0 0 0,0.11878 h 0.507165 c -0.03348,0.2621 -0.23574,0.47251 -0.507165,0.47251 -0.294657,0 -0.532811,-0.23722 -0.53281,-0.53189 0,-0.29465 0.238153,-0.53258 0.53281,-0.53258 0.141222,0 0.276317,0.0564 0.376157,0.1562 a 0.05927999,0.05927999 0 0 0 0.08388,-0.0836 c -0.122028,-0.12207 -0.28742,-0.19132 -0.46003,-0.19132 z m 9.3456911,0 a 0.05924901,0.05924901 0 0 0 -0.05938,0.0594 v 1.18323 a 0.05938252,0.05938252 0 1 0 0.118765,0 v -0.41381 h 0.768487 c 0.10843,0 0.17405,0.0237 0.219964,0.0811 0.04591,0.0573 0.07601,0.16185 0.07601,0.33272 a 0.05924901,0.05924901 0 1 0 0.117837,0 c 0,-0.18403 -0.02883,-0.3164 -0.101201,-0.40689 -0.03542,-0.0442 -0.101105,-0.042 -0.152727,-0.0622 0.04943,-0.0173 0.113139,-0.0154 0.148337,-0.0506 0.07312,-0.0731 0.105586,-0.18006 0.105586,-0.30824 0,-0.12817 -0.03248,-0.2351 -0.105586,-0.30821 -0.07311,-0.0731 -0.180056,-0.10649 -0.308226,-0.10649 z m -7.9260921,4.6e-4 a 0.05915585,0.05915585 0 0 0 -0.0058,4.6e-4 0.05915585,0.05915585 0 0 0 -0.04737,0.0323 l -0.350511,0.70195 a 0.05938394,0.05938394 0 0 0 -0.0078,0.0157 l -0.232673,0.46557 a 0.05915585,0.05915585 0 1 0 0.105586,0.0524 l 0.220196,-0.44015 h 0.636786 l 0.219733,0.44015 a 0.05915585,0.05915585 0 1 0 0.105827,-0.0524 l -0.232672,-0.46557 a 0.05938394,0.05938394 0 0 0 -0.0073,-0.0148 l -0.351203,-0.70287 a 0.05915585,0.05915585 0 0 0 -0.05268,-0.0328 z m 7.6899551,2.3e-4 a 0.05915585,0.05915585 0 0 0 -4.63e-4,2.3e-4 h -1.183229 a 0.05915585,0.05915585 0 0 0 -0.0063,0 0.05915585,0.05915585 0 0 0 -0.05338,0.0584 v 1.18323 a 0.05915585,0.05915585 0 0 0 0.05962,0.0594 h 1.183229 a 0.05939,0.05939 0 1 0 0,-0.11878 h -1.123848 v -0.47319 h 0.531655 a 0.05915585,0.05915585 0 1 0 0,-0.11806 h -0.531655 v -0.4732 h 1.123848 a 0.05915585,0.05915585 0 1 0 4.62e-4,-0.11806 z m 0.295518,0.11806 h 0.768488 c 0.108429,0 0.179168,0.0265 0.224353,0.0717 0.04519,0.0452 0.07163,0.11589 0.07163,0.22436 0,0.10841 -0.02644,0.17917 -0.07163,0.22436 -0.04519,0.0452 -0.115922,0.0709 -0.224353,0.0709 h -0.768488 z m -7.9852421,0.0732 0.258781,0.51803 h -0.518024 z"
       id="path4697"
       inkscape:connector-curvature="0" />
    <path
       style="color:#000000;font-style:normal;font-variant:normal;font-weight:normal;font-stretch:normal;font-size:medium;line-height:normal;font-family:sans-serif;font-variant-ligatures:normal;font-variant-position:normal;font-variant-caps:normal;font-variant-numeric:normal;font-variant-alternates:normal;font-feature-settings:normal;text-indent:0;text-align:start;text-decoration:none;text-decoration-line:none;text-decoration-style:solid;text-decoration-color:#000000;letter-spacing:normal;word-spacing:normal;text-transform:none;writing-mode:lr-tb;direction:ltr;text-orientation:mixed;dominant-baseline:auto;baseline-shift:baseline;text-anchor:start;white-space:normal;shape-padding:0;clip-rule:nonzero;display:inline;overflow:visible;visibility:visible;opacity:1;isolation:auto;mix-blend-mode:normal;color-interpolation:sRGB;color-interpolation-filters:linearRGB;solid-color:#000000;solid-opacity:1;vector-effect:none;fill:#0076ff;fill-opacity:1;fill-rule:nonzero;stroke:none;stroke-width:0.11848617;stroke-linecap:round;stroke-linejoin:round;stroke-miterlimit:4;stroke-dasharray:none;stroke-dashoffset:0;stroke-opacity:1;color-rendering:auto;image-rendering:auto;shape-rendering:auto;text-rendering:auto;enable-background:accumulate"
       d="m 5.7321699,295.32134 a 0.05924901,0.05924901 0 0 0 -0.006,4.6e-4 0.05924901,0.05924901 0 0 0 -0.05245,0.0594 v 1.18323 a 0.05924901,0.05924901 0 0 0 0.05938,0.0594 h 1.183462 a 0.05939,0.05939 0 1 0 0,-0.11878 h -1.124081 v -1.12384 a 0.05924901,0.05924901 0 0 0 -0.0603,-0.0599 z m -3.4930818,4.6e-4 c -0.358693,0 -0.650417,0.29265 -0.650417,0.65135 10e-7,0.35869 0.291726,0.65064 0.650417,0.65064 0.172576,2e-5 0.338237,-0.0683 0.460261,-0.19038 a 0.05930748,0.05930748 0 0 0 -0.08388,-0.0838 c -0.09984,0.0999 -0.235193,0.15549 -0.376389,0.15549 -0.294657,0 -0.532579,-0.23721 -0.53258,-0.53188 -10e-7,-0.29465 0.237922,-0.53258 0.53258,-0.53258 0.141223,0 0.276549,0.0564 0.376389,0.15619 a 0.05927999,0.05927999 0 0 0 0.08388,-0.0836 c -0.122029,-0.12208 -0.28765,-0.19132 -0.460261,-0.19132 z m 2.074177,0 a 0.05924901,0.05924901 0 0 0 -0.05938,0.0594 v 1.18323 a 0.059383,0.059383 0 1 0 0.118766,0 v -0.41382 h 0.7694108 c 0.108429,0 0.173128,0.0237 0.219039,0.0811 0.04591,0.0573 0.07601,0.16186 0.07601,0.33272 a 0.05938259,0.05938259 0 1 0 0.118765,0 c 1e-6,-0.18403 -0.02973,-0.31639 -0.102129,-0.40689 -0.03551,-0.0445 -0.101178,-0.042 -0.152958,-0.0622 0.04958,-0.0173 0.113284,-0.0153 0.148568,-0.0506 0.07311,-0.0731 0.106514,-0.18006 0.106514,-0.30823 0,-0.12817 -0.0334,-0.23511 -0.106514,-0.30822 -0.07311,-0.0731 -0.179128,-0.10649 -0.307301,-0.10649 z m -0.827175,4.7e-4 a 0.05915585,0.05915585 0 0 0 -0.006,4.6e-4 0.05915585,0.05915585 0 0 0 -0.04807,0.0323 l -0.591269,1.18323 a 0.05915585,0.05915585 0 1 0 0.105827,0.0524 l 0.220425,-0.44015 h 0.636788 l 0.220425,0.44015 a 0.05915585,0.05915585 0 1 0 0.105586,-0.0524 l -0.591268,-1.18323 a 0.05915585,0.05915585 0 0 0 -0.05245,-0.0328 z m 0.886556,0.11829 h 0.7694118 c 0.108429,0 0.178244,0.0265 0.22343,0.0717 0.04519,0.0452 0.07163,0.11589 0.07163,0.22435 0,0.10842 -0.02644,0.17918 -0.07163,0.22436 -0.04519,0.0452 -0.115007,0.071 -0.22343,0.071 H 4.3726461 Z m -0.887249,0.0742 0.259011,0.5171 h -0.518023 z"
       id="path4526"
       inkscape:connector-curvature="0" />
    <path
       style="opacity:1;fill:none;stroke:#140404;stroke-width:0.26499999;stroke-linecap:round;stroke-linejoin:round;stroke-miterlimit:4;stroke-dasharray:none;stroke-opacity:0.99761909"
       d="m 116.15208,139.57292 h 1.32292 c 0,0.73063 -0.59229,1.32291 -1.32292,1.32291 -0.73062,0 -1.32291,-0.59229 -1.32291,-1.32291 0,-0.73063 0.59229,-1.32292 1.32291,-1.32292 0.35095,0 0.68752,0.13945 0.93563,0.38766"
       id="path4697-1"
       inkscape:connector-curvature="0"
       sodipodi:nodetypes="ccsssc" />
    <path
       style="opacity:1;fill:#000000;stroke:none;stroke-width:1;stroke-linecap:round;stroke-linejoin:bevel;stroke-miterlimit:4;stroke-dasharray:none;stroke-opacity:1;paint-order:stroke fill markers"
       d="m 122.23749,134.28124 1.58751,1e-5 v 1.5875 z"
       id="rect19226-2"
       inkscape:connector-curvature="0"
       sodipodi:nodetypes="cccc" />
    <path
       style="fill:#000000;stroke-width:0.26458332"
       d="m 122.2375,131.63537 a 2.6458332,2.6458332 0 0 0 -2.64583,2.64583 2.6458332,2.6458332 0 0 0 2.64583,2.64584 2.6458332,2.6458332 0 0 0 2.64583,-2.64584 h -1.32291 a 1.3229166,1.3229166 0 0 1 -1.32292,1.32292 1.3229166,1.3229166 0 0 1 -1.32292,-1.32292 1.3229166,1.3229166 0 0 1 1.32292,-1.32291 1.3229166,1.3229166 0 0 1 0.93482,0.38809 l 0.93483,-0.93483 a 2.6458332,2.6458332 0 0 0 -1.86965,-0.77618 z"
       id="path3706-3"
       inkscape:connector-curvature="0" />
    <path
       inkscape:connector-curvature="0"
       style="fill:#000000;stroke-width:0.26458332"
       d="m 118.26875,131.63538 a 2.6458332,2.6458332 0 0 0 -2.64584,2.64583 2.6458332,2.6458332 0 0 0 2.64584,2.64583 2.6458332,2.6458332 0 0 0 1.79937,-0.71055 2.9104167,2.9104167 0 0 1 -0.65991,-1.26607 1.3229166,1.3229166 0 0 1 -1.13946,0.65371 1.3229166,1.3229166 0 0 1 -1.32292,-1.32292 1.3229166,1.3229166 0 0 1 1.32292,-1.32292 1.3229166,1.3229166 0 0 1 0.70125,0.20413 l 0.66094,-1.14464 a 2.6458332,2.6458332 0 0 0 -1.36219,-0.3824 z"
       id="path3706-7-8" />
    <path
       style="opacity:1;fill:none;stroke:#000000;stroke-width:0.26499999;stroke-linecap:round;stroke-linejoin:round;stroke-miterlimit:4;stroke-dasharray:none;stroke-opacity:0.98571424"
       d="m 104.775,140.50831 a 1.3229166,1.3229166 0 0 1 -0.93549,0.38751 1.3229166,1.3229166 0 0 1 -1.32292,-1.32291 1.3229166,1.3229166 0 0 1 1.32292,-1.32292 1.3229166,1.3229166 0 0 1 0.93563,0.38766"
       id="path4526-5"
       inkscape:connector-curvature="0" />
    <path
       style="fill:none;stroke:#000000;stroke-width:0.26458332px;stroke-linecap:round;stroke-linejoin:round;stroke-opacity:1"
       d="m 105.30416,140.89583 1.32292,-2.64583 1.32292,2.64583"
       id="path4533-7"
       inkscape:connector-curvature="0" />
    <path
       style="fill:none;stroke:#000000;stroke-width:0.26458332px;stroke-linecap:round;stroke-linejoin:round;stroke-opacity:1"
       d="m 105.83333,139.8375 h 1.5875"
       id="path4535-3"
       inkscape:connector-curvature="0" />
    <path
       style="fill:none;stroke:#000000;stroke-width:0.26499999;stroke-linecap:round;stroke-linejoin:round;stroke-miterlimit:4;stroke-dasharray:none;stroke-opacity:1"
       d="M 108.47916,140.89583 V 138.25 h 1.85209 c 0.52917,0 0.79375,0.26459 0.79375,0.79375 0,0.52916 -0.26458,0.79375 -0.79375,0.79375 0.52917,0 0.79375,0.26458 0.79375,1.05833"
       id="path4537-6"
       inkscape:connector-curvature="0"
       sodipodi:nodetypes="ccczcc" />
    <path
       style="fill:none;stroke:#000000;stroke-width:0.26458332px;stroke-linecap:butt;stroke-linejoin:miter;stroke-opacity:1"
       d="m 110.33125,139.8375 h -1.85209"
       id="path4539-4"
       inkscape:connector-curvature="0"
       inkscape:path-effect="#path-effect4541-8"
       inkscape:original-d="m 110.33125,139.8375 h -1.85209"
       sodipodi:nodetypes="cc" />
    <path
       style="fill:none;stroke:#000000;stroke-width:0.26499999;stroke-linecap:round;stroke-linejoin:round;stroke-miterlimit:4;stroke-dasharray:none;stroke-opacity:1"
       d="m 111.65416,138.25 v 2.64583 H 114.3"
       id="path4573-4"
       inkscape:connector-curvature="0"
       inkscape:path-effect="#path-effect4575-3"
       inkscape:original-d="m 111.65416,138.25 v 2.64583 H 114.3" />
    <path
       style="fill:none;stroke:#000000;stroke-width:0.26458332px;stroke-linecap:round;stroke-linejoin:round;stroke-opacity:1"
       d="m 118.00417,140.89583 1.32291,-2.64583 1.32292,2.64583"
       id="path4533-9-3"
       inkscape:connector-curvature="0" />
    <path
       style="fill:none;stroke:#000000;stroke-width:0.26458332px;stroke-linecap:round;stroke-linejoin:round;stroke-opacity:1"
       d="m 118.53333,139.8375 h 1.5875"
       id="path4535-2-1"
       inkscape:connector-curvature="0" />
    <path
       style="fill:none;stroke:#000000;stroke-width:0.26499999;stroke-linecap:round;stroke-linejoin:round;stroke-miterlimit:4;stroke-dasharray:none;stroke-opacity:1"
       d="m 121.17917,138.25 v 1.32291 c 0,0.79375 0.52917,1.32292 1.32292,1.32292 0.79375,0 1.32292,-0.52917 1.32292,-1.32292 V 138.25"
       id="path4603-5"
       inkscape:connector-curvature="0"
       sodipodi:nodetypes="ccccc" />
    <path
       style="fill:none;stroke:#000000;stroke-width:0.26458332px;stroke-linecap:round;stroke-linejoin:round;stroke-opacity:1"
       d="m 124.35417,138.25 h 2.64584"
       id="path4605-1"
       inkscape:connector-curvature="0"
       inkscape:path-effect="#path-effect4607-2"
       inkscape:original-d="m 124.35417,138.25 h 2.64584" />
    <path
       style="fill:none;stroke:#000000;stroke-width:0.26458332px;stroke-linecap:round;stroke-linejoin:round;stroke-opacity:1"
       d="m 125.67709,138.25 v 2.64583"
       id="path4609-3"
       inkscape:connector-curvature="0"
       inkscape:path-effect="#path-effect4611-2"
       inkscape:original-d="m 125.67709,138.25 v 2.64583" />
    <path
       style="fill:none;stroke:#000000;stroke-width:0.26458332px;stroke-linecap:round;stroke-linejoin:round;stroke-opacity:1"
       d="m 127.52917,138.25 v 2.64583"
       id="path4613-1"
       inkscape:connector-curvature="0"
       inkscape:path-effect="#path-effect4615-7"
       inkscape:original-d="m 127.52917,138.25 v 2.64583" />
    <path
       style="fill:none;stroke:#000000;stroke-width:0.26458332px;stroke-linecap:round;stroke-linejoin:round;stroke-opacity:1"
       d="m 127.52917,139.57291 h 2.64584"
       id="path4617-6"
       inkscape:connector-curvature="0"
       inkscape:path-effect="#path-effect4619-5"
       inkscape:original-d="m 127.52917,139.57291 h 2.64584" />
    <path
       style="fill:none;stroke:#000000;stroke-width:0.26458332px;stroke-linecap:round;stroke-linejoin:round;stroke-opacity:1"
       d="m 130.17501,138.25 v 2.64583"
       id="path4621-3"
       inkscape:connector-curvature="0"
       inkscape:path-effect="#path-effect4623-6"
       inkscape:original-d="m 130.17501,138.25 v 2.64583" />
    <path
       style="fill:none;stroke:#000000;stroke-width:0.26458332px;stroke-linecap:round;stroke-linejoin:round;stroke-opacity:1"
       d="M 130.70417,138.25 H 133.35"
       id="path4625-1"
       inkscape:connector-curvature="0"
       inkscape:path-effect="#path-effect4627-4"
       inkscape:original-d="M 130.70417,138.25 H 133.35" />
    <path
       style="fill:none;stroke:#000000;stroke-width:0.26458332px;stroke-linecap:round;stroke-linejoin:round;stroke-opacity:1"
       d="m 132.02709,138.25 v 2.64583"
       id="path4629-1"
       inkscape:connector-curvature="0"
       inkscape:path-effect="#path-effect4631-5"
       inkscape:original-d="m 132.02709,138.25 v 2.64583" />
    <path
       style="fill:none;stroke:#000000;stroke-width:0.26458332px;stroke-linecap:round;stroke-linejoin:round;stroke-opacity:1"
       d="M 130.70417,140.89583 H 133.35"
       id="path4633-4"
       inkscape:connector-curvature="0"
       inkscape:path-effect="#path-effect4635-9"
       inkscape:original-d="M 130.70417,140.89583 H 133.35" />
    <path
       style="fill:none;stroke:#000000;stroke-width:0.26458332px;stroke-linecap:round;stroke-linejoin:round;stroke-opacity:1"
       d="m 136.52501,140.89583 h -2.64584 V 138.25 h 2.64584"
       id="path4637-7"
       inkscape:connector-curvature="0"
       inkscape:path-effect="#path-effect4639-8"
       inkscape:original-d="m 136.52501,140.89583 h -2.64584 V 138.25 h 2.64584"
       sodipodi:nodetypes="cccc" />
    <path
       style="fill:none;stroke:#000000;stroke-width:0.26458332px;stroke-linecap:round;stroke-linejoin:round;stroke-opacity:1"
       d="m 133.87917,139.57291 h 1.32292"
       id="path4641-4"
       inkscape:connector-curvature="0"
       inkscape:path-effect="#path-effect4643-6"
       inkscape:original-d="m 133.87917,139.57291 h 1.32292" />
    <path
       style="fill:none;stroke:#000000;stroke-width:0.26499999;stroke-linecap:round;stroke-linejoin:round;stroke-miterlimit:4;stroke-dasharray:none;stroke-opacity:1"
       d="M 137.05417,140.89583 V 138.25 h 1.85209 c 0.52916,0 0.79375,0.26459 0.79375,0.79375 0,0.52916 -0.26459,0.79375 -0.79375,0.79375 0.52916,0 0.79375,0.26458 0.79375,1.05833"
       id="path4537-0-3"
       inkscape:connector-curvature="0"
       sodipodi:nodetypes="ccczcc" />
    <path
       style="fill:none;stroke:#000000;stroke-width:0.26458332px;stroke-linecap:butt;stroke-linejoin:miter;stroke-opacity:1"
       d="m 138.90626,139.8375 h -1.85209"
       id="path4539-6-0"
       inkscape:connector-curvature="0"
       inkscape:path-effect="#path-effect4541-7-7"
       inkscape:original-d="m 138.90626,139.8375 h -1.85209"
       sodipodi:nodetypes="cc" />
  </g>
</svg>
