<?xml version="1.0" encoding="UTF-8" standalone="no"?>
<!-- Created with Inkscape (http://www.inkscape.org/) -->

<svg
   xmlns:dc="http://purl.org/dc/elements/1.1/"
   xmlns:cc="http://creativecommons.org/ns#"
   xmlns:rdf="http://www.w3.org/1999/02/22-rdf-syntax-ns#"
   xmlns:svg="http://www.w3.org/2000/svg"
   xmlns="http://www.w3.org/2000/svg"
   xmlns:sodipodi="http://sodipodi.sourceforge.net/DTD/sodipodi-0.dtd"
   xmlns:inkscape="http://www.inkscape.org/namespaces/inkscape"
   width="41"
   height="25"
   viewBox="0 0 10.847924 6.6145875"
   version="1.1"
   id="svg8"
   inkscape:version="0.92.1 r15371"
   sodipodi:docname="logo.svg"
   inkscape:export-filename="C:\Users\Carl\Documents\Web\Carl\public\img\logo.png"
   inkscape:export-xdpi="417.3913"
   inkscape:export-ydpi="417.3913">
  <defs
     id="defs2">
    <inkscape:path-effect
       effect="spiro"
       id="path-effect4647"
       is_visible="true" />
    <inkscape:path-effect
       effect="spiro"
       id="path-effect4643"
       is_visible="true" />
    <inkscape:path-effect
       effect="spiro"
       id="path-effect4639"
       is_visible="true" />
    <inkscape:path-effect
       effect="spiro"
       id="path-effect4635"
       is_visible="true" />
    <inkscape:path-effect
       effect="spiro"
       id="path-effect4631"
       is_visible="true" />
    <inkscape:path-effect
       effect="spiro"
       id="path-effect4627"
       is_visible="true" />
    <inkscape:path-effect
       effect="spiro"
       id="path-effect4623"
       is_visible="true" />
    <inkscape:path-effect
       effect="spiro"
       id="path-effect4619"
       is_visible="true" />
    <inkscape:path-effect
       effect="spiro"
       id="path-effect4615"
       is_visible="true" />
    <inkscape:path-effect
       effect="spiro"
       id="path-effect4611"
       is_visible="true" />
    <inkscape:path-effect
       effect="spiro"
       id="path-effect4607"
       is_visible="true" />
    <inkscape:path-effect
       effect="spiro"
       id="path-effect4575"
       is_visible="true" />
    <inkscape:path-effect
       effect="spiro"
       id="path-effect4541"
       is_visible="true" />
    <marker
       inkscape:stockid="Arrow2Mend"
       orient="auto"
       refY="0"
       refX="0"
       id="Arrow2Mend"
       style="overflow:visible"
       inkscape:isstock="true">
      <path
         id="path4739"
         style="fill:#000000;fill-opacity:1;fill-rule:evenodd;stroke:#000000;stroke-width:0.625;stroke-linejoin:round;stroke-opacity:1"
         d="M 8.7185878,4.0337352 -2.2072895,0.01601326 8.7185884,-4.0017078 c -1.7454984,2.3720609 -1.7354408,5.6174519 -6e-7,8.035443 z"
         transform="scale(-0.6)"
         inkscape:connector-curvature="0" />
    </marker>
    <marker
       inkscape:stockid="Arrow1Lstart"
       orient="auto"
       refY="0"
       refX="0"
       id="marker5066"
       style="overflow:visible"
       inkscape:isstock="true">
      <path
         id="path5064"
         d="M 0,0 5,-5 -12.5,0 5,5 Z"
         style="fill:#000000;fill-opacity:1;fill-rule:evenodd;stroke:#000000;stroke-width:1.00000003pt;stroke-opacity:1"
         transform="matrix(0.8,0,0,0.8,10,0)"
         inkscape:connector-curvature="0" />
    </marker>
    <marker
       inkscape:stockid="Scissors"
       orient="auto"
       refY="0"
       refX="0"
       id="Scissors"
       style="overflow:visible"
       inkscape:isstock="true">
      <path
         id="schere"
         d="M 9.0898857,-3.6061018 C 8.1198849,-4.7769976 6.3697607,-4.7358294 5.0623558,-4.2327734 l -8.2124046,3.0779029 c -2.3882933,-1.3067135 -4.7482873,-0.9325372 -4.7482873,-1.5687873 0,-0.4973164 0.4566662,-0.3883222 0.3883068,-1.6831941 -0.065635,-1.2432767 -1.3635771,-2.1630796 -2.5903987,-2.0816435 -1.227271,-0.00735 -2.499439,0.9331613 -2.510341,2.2300611 -0.09143,1.3063864 1.007209,2.5196896 2.306764,2.6052316 1.5223406,0.2266616 4.218258,-0.6955566 5.482945,1.57086006 -0.9422847,1.73825774 -2.6140244,1.74307674 -4.1255107,1.65607034 -1.2548743,-0.072235 -2.7620933,0.2873979 -3.3606483,1.5208605 -0.578367,1.1820862 -0.0112,2.8646022 1.316749,3.226412 1.3401912,0.4918277 3.1806689,-0.129711 3.4993722,-1.6707242 0.2456585,-1.187823 -0.5953659,-1.7459574 -0.2725074,-2.1771537 0.2436135,-0.32536 1.7907806,-0.1368452 4.5471053,-1.3748244 L 5.6763468,4.2330688 C 6.8000164,4.5467672 8.1730685,4.5362646 9.1684433,3.4313614 l -9.22008423,-3.48508362 z m -18.3078016,-1.900504 c 1.294559,0.7227998 1.1888392,2.6835702 -0.1564272,3.0632889 -1.2165179,0.423661 -2.7710269,-0.7589694 -2.3831779,-2.0774648 0.227148,-1.0818519 1.653387,-1.480632 2.5396051,-0.9858241 z m 0.056264,8.0173649 c 1.3508301,0.4988648 1.1214429,2.7844356 -0.2522207,3.091609 -0.9110594,0.3163391 -2.2135494,-0.1387976 -2.3056964,-1.2121394 -0.177609,-1.305055 1.356085,-2.4841482 2.5579171,-1.8794696 z"
         style="fill:#000000;fill-opacity:1;stroke:#000000;stroke-opacity:1"
         inkscape:connector-curvature="0" />
    </marker>
    <marker
       inkscape:stockid="Arrow1Lstart"
       orient="auto"
       refY="0"
       refX="0"
       id="Arrow1Lstart"
       style="overflow:visible"
       inkscape:isstock="true">
      <path
         id="path4712"
         d="M 0,0 5,-5 -12.5,0 5,5 Z"
         style="fill:#000000;fill-opacity:1;fill-rule:evenodd;stroke:#000000;stroke-width:1.00000003pt;stroke-opacity:1"
         transform="matrix(0.8,0,0,0.8,10,0)"
         inkscape:connector-curvature="0" />
    </marker>
    <marker
       inkscape:stockid="Arrow1Lend"
       orient="auto"
       refY="0"
       refX="0"
       id="Arrow1Lend"
       style="overflow:visible"
       inkscape:isstock="true">
      <path
         id="path4715"
         d="M 0,0 5,-5 -12.5,0 5,5 Z"
         style="fill:#000000;fill-opacity:1;fill-rule:evenodd;stroke:#000000;stroke-width:1.00000003pt;stroke-opacity:1"
         transform="matrix(-0.8,0,0,-0.8,-10,0)"
         inkscape:connector-curvature="0" />
    </marker>
    <inkscape:path-effect
       effect="spiro"
       id="path-effect4541-7"
       is_visible="true" />
    <inkscape:path-effect
       effect="spiro"
       id="path-effect4541-7-7"
       is_visible="true" />
    <inkscape:path-effect
       effect="spiro"
       id="path-effect4643-6"
       is_visible="true" />
    <inkscape:path-effect
       effect="spiro"
       id="path-effect4639-8"
       is_visible="true" />
    <inkscape:path-effect
       effect="spiro"
       id="path-effect4635-9"
       is_visible="true" />
    <inkscape:path-effect
       effect="spiro"
       id="path-effect4631-5"
       is_visible="true" />
    <inkscape:path-effect
       effect="spiro"
       id="path-effect4627-4"
       is_visible="true" />
    <inkscape:path-effect
       effect="spiro"
       id="path-effect4623-6"
       is_visible="true" />
    <inkscape:path-effect
       effect="spiro"
       id="path-effect4619-5"
       is_visible="true" />
    <inkscape:path-effect
       effect="spiro"
       id="path-effect4615-7"
       is_visible="true" />
    <inkscape:path-effect
       effect="spiro"
       id="path-effect4611-2"
       is_visible="true" />
    <inkscape:path-effect
       effect="spiro"
       id="path-effect4607-2"
       is_visible="true" />
    <inkscape:path-effect
       effect="spiro"
       id="path-effect4575-3"
       is_visible="true" />
    <inkscape:path-effect
       effect="spiro"
       id="path-effect4541-8"
       is_visible="true" />
  </defs>
  <sodipodi:namedview
     id="base"
     pagecolor="#ffffff"
     bordercolor="#666666"
     borderopacity="1.0"
     inkscape:pageopacity="0.0"
     inkscape:pageshadow="2"
     inkscape:zoom="8"
     inkscape:cx="58.861417"
     inkscape:cy="17.844643"
     inkscape:document-units="mm"
     inkscape:current-layer="layer1"
     showgrid="true"
     inkscape:snap-bbox="true"
     inkscape:bbox-paths="true"
     inkscape:bbox-nodes="false"
     inkscape:snap-bbox-edge-midpoints="true"
     inkscape:snap-bbox-midpoints="true"
     showguides="false"
     inkscape:snap-global="false"
     inkscape:measure-start="0,0"
     inkscape:measure-end="0,0"
     inkscape:window-width="1920"
     inkscape:window-height="1017"
     inkscape:window-x="-8"
     inkscape:window-y="-8"
     inkscape:window-maximized="1"
     units="px">
    <inkscape:grid
       type="xygrid"
       id="grid3699" />
  </sodipodi:namedview>
  <metadata
     id="metadata5">
    <rdf:RDF>
      <cc:Work
         rdf:about="">
        <dc:format>image/svg+xml</dc:format>
        <dc:type
           rdf:resource="http://purl.org/dc/dcmitype/StillImage" />
        <dc:title></dc:title>
      </cc:Work>
    </rdf:RDF>
  </metadata>
  <g
     inkscape:label="Calque 1"
     inkscape:groupmode="layer"
     id="layer1"
     transform="translate(0,-290.385)">
    <path
       style="opacity:1;fill:#ffe300;fill-opacity:1;stroke:none;stroke-width:1;stroke-linecap:round;stroke-linejoin:bevel;stroke-miterlimit:4;stroke-dasharray:none;stroke-opacity:1;paint-order:stroke fill markers"
       d="m 7.4166527,293.53729 1.587505,1e-5 v 1.5875 z"
       id="rect19226"
       inkscape:connector-curvature="0"
       sodipodi:nodetypes="cccc" />
    <path
       style="fill:#ffffff;stroke-width:0.26458332"
       d="m 7.4166577,290.89142 a 2.6458332,2.6458332 0 0 0 -2.6458331,2.64583 2.6458332,2.6458332 0 0 0 2.6458331,2.64584 2.6458332,2.6458332 0 0 0 2.6458333,-2.64584 H 8.7395747 a 1.3229166,1.3229166 0 0 1 -1.322917,1.32292 1.3229166,1.3229166 0 0 1 -1.322917,-1.32292 1.3229166,1.3229166 0 0 1 1.322917,-1.32291 1.3229166,1.3229166 0 0 1 0.934826,0.38809 l 0.934828,-0.93483 a 2.6458332,2.6458332 0 0 0 -1.869654,-0.77618 z"
       id="path3706"
       inkscape:connector-curvature="0" />
    <path
       style="fill:#ffffff;stroke-width:0.26458332"
       d="m 3.4479066,290.89142 a 2.6458331,2.6458331 0 0 0 -2.64583297,2.64583 2.6458331,2.6458331 0 0 0 2.64583297,2.64583 2.6458331,2.6458331 0 0 0 1.799373,-0.71055 2.9104166,2.9104166 0 0 1 -0.659908,-1.26607 1.3229165,1.3229165 0 0 1 -1.139465,0.65371 1.3229165,1.3229165 0 0 1 -1.322917,-1.32292 1.3229165,1.3229165 0 0 1 1.322917,-1.32292 1.3229165,1.3229165 0 0 1 0.701249,0.20413 l 0.660943,-1.14464 a 2.6458331,2.6458331 0 0 0 -1.362192,-0.3824 z"
       id="path3706-7"
       inkscape:connector-curvature="0" />
  </g>
</svg>
